The.Three.Musketeers.2011.PL.BRRip.AC3.XviD-RLF
~~~~~~~~~~~~~~~~~~~~~~~~~~~~~~~~~~~~~~~~~~~~~~~                                            
GENERAL

Complete name                    : rlf-musketeers-pl.avi
Format                           : AVI
Format/Info                      : Audio Video Interleave
File size                        : 1.43 GiB
Duration                         : 1h 50mn
Overall bit rate                 : 1 866 Kbps
Language                         : Polish
Subs                             : None 
Encoder                          : Ralf

Video:

Format                           : MPEG-4 Visual
Format profile                   : Advanced Simple@L5
Format settings, BVOP            : 2
Format settings, QPel            : No
Format settings, GMC             : No warppoints
Format settings, Matrix          : H.263
Muxing mode                      : Packed bitstream
Codec ID                         : XVID
Duration                         : 1h 50mn
Bit rate                         : 1 633 Kbps
Width                            : 688 pixels
Height                           : 288 pixels
Display aspect ratio             : 2.35:1
Frame rate                       : 23.976 fps
Color space                      : YUV
Chroma subsampling               : 4:2:0
Bit depth                        : 8 bits
Scan type                        : Progressive
Bits/(Pixel*Frame)               : 0.344
Stream size                      : 1.25 GiB (87%)      
Stream size                      : Xvid 63

Audio:

Format                           : AC-3
Format/Info                      : Audio Coding 3
Duration                         : 1h 50mn
Bit rate mode                    : Constant
Bit rate                         : 224 Kbps
Channel(s)                       : 6 channels
Channel positions                : Front: L C R, Side: L R, LFE
Sampling rate                    : 48.0 KHz
Bit depth                        : 16 bits
Stream size                      : 177 MiB (12%)
Alignment                        : Split accross interleaves
Interleave, duration             : 42 ms (1.00 video frame)
Interleave, preload duration     : 500 ms

MOVIE INFO

Trojka oslawionych muszkieterow Atos, Portos i Aramis zostaje odsunieta 
w cien za sprawa spisku tajemniczej Milady. Trzy lata pozniej do Paryza 
przyjezdza mlody chlopak o nazwisku D─║Artagnan, gdzie dolacza do slynnych 
szermierzy. W tym samym czasie przebiegly kardynal Richelieu planuje 
spisek w celu zdobycia krolewskiej korony.
                                            
http://www.imdb.com/title/?tt1509767/  
http://www.filmweb.pl/film/?Trzej+muszkieterowie+3D-2011-48?5468

                                               
SOURCE

EHLE's 1080p.BluRay.x264 / DVDSEED's AC3 5.1 (THX)

SCREENS
 
http://www.postimg.com/60000/photo-59259.jpg 
http://www.postimg.com/60000/photo-59257.jpg 
http://www.postimg.com/60000/photo-59256.jpg 
http://www.postimg.com/60000/photo-59260.jpg 
http://www.postimg.com/60000/photo-59258.jpg